<?xml version="1.0" standalone="no"?>
<!DOCTYPE svg PUBLIC "-//W3C//DTD SVG 20010904//EN"
 "http://www.w3.org/TR/2001/REC-SVG-20010904/DTD/svg10.dtd">
<svg version="1.0" xmlns="http://www.w3.org/2000/svg"
 width="408.000000pt" height="408.000000pt" viewBox="0 0 408.000000 408.000000"
 preserveAspectRatio="xMidYMid meet">
<metadata>
Created by potrace 1.14, written by Peter Selinger 2001-2017
</metadata>
<g transform="translate(0.000000,408.000000) scale(0.100000,-0.100000)"
fill="#000000" stroke="none">
<path d="M2940 3177 c0 -29 3 -34 23 -33 32 2 44 12 42 38 -1 18 -8 24 -33 26
-30 3 -32 1 -32 -31z"/>
<path d="M2470 3060 c0 -27 3 -30 30 -30 27 0 30 3 30 30 0 27 -3 30 -30 30
-27 0 -30 -3 -30 -30z"/>
<path d="M3147 3056 c-2 -6 -3 -42 -2 -81 l0 -70 83 -1 82 -2 0 83 0 83 -80
-1 c-47 0 -81 -5 -83 -11z"/>
<path d="M3639 3032 c-15 -3 -17 -11 -10 -73 1 -3 18 -5 39 -4 36 1 37 1 37
40 0 35 -3 39 -25 40 -14 1 -32 -1 -41 -3z"/>
<path d="M2985 2951 c-3 -2 -5 -26 -5 -53 l0 -48 56 0 55 0 -3 53 -3 52 -48 0
c-26 1 -50 -1 -52 -4z"/>
<path d="M2745 2930 c-8 -14 3 -30 21 -30 8 0 14 9 14 20 0 21 -24 28 -35 10z"/>
<path d="M3329 2933 c-1 -5 -2 -34 -3 -66 l-1 -58 60 3 60 3 2 63 2 62 -60 0
c-32 0 -60 -3 -60 -7z"/>
<path d="M2264 2815 c1 -19 3 -35 6 -36 3 0 20 -2 38 -3 31 -2 32 -1 32 36 0
37 -1 38 -38 38 -38 0 -39 -1 -38 -35z"/>
<path d="M2534 2810 c-1 -40 -1 -40 37 -40 40 0 49 13 41 58 -4 18 -11 22 -41
22 -35 0 -36 -1 -37 -40z"/>
<path d="M3567 2822 c-16 -3 -17 -13 -15 -85 l3 -82 80 0 80 0 1 70 c2 102 4
100 -68 100 -35 0 -71 -1 -81 -3z"/>
<path d="M3467 2803 c-3 -5 -43 -7 -89 -6 -78 2 -222 -12 -254 -24 -16 -6 -20
-93 -4 -93 5 0 33 11 62 23 29 13 58 25 63 26 6 1 28 7 50 13 22 6 45 13 50
14 6 2 49 11 97 21 88 18 114 33 59 33 -17 0 -32 -3 -34 -7z"/>
<path d="M2857 2791 c-2 -3 -3 -55 -3 -116 l1 -110 120 0 120 0 0 105 c0 58
-1 110 -3 116 -3 12 -230 17 -235 5z"/>
<path d="M3989 2776 c-9 -75 -7 -78 51 -78 11 0 23 0 28 1 4 1 7 20 7 44 l0
42 -43 1 c-25 1 -43 -3 -43 -10z"/>
<path d="M1917 2741 c-2 -3 -2 -22 -2 -41 0 -34 2 -35 43 -38 l43 -3 -3 43
c-3 42 -4 42 -41 43 -21 1 -39 -1 -40 -4z"/>
<path d="M3730 2695 l0 -55 -36 0 c-24 0 -34 -4 -31 -12 2 -7 10 -14 18 -14 8
-1 19 -3 24 -4 18 -4 88 -1 93 5 11 10 9 120 -2 127 -6 4 -23 8 -38 8 -27 0
-28 -2 -28 -55z"/>
<path d="M2699 2715 c-1 -8 -2 -21 -3 -27 -5 -29 14 -46 46 -44 25 2 34 8 38
27 11 44 1 59 -41 59 -27 0 -39 -4 -40 -15z"/>
<path d="M2812 2691 c-7 -4 -12 -12 -11 -17 7 -41 0 -45 -71 -43 -39 1 -75 -2
-80 -7 -5 -5 -10 -47 -12 -94 l-3 -85 -102 0 c-101 -1 -103 0 -103 23 l0 23
-32 -22 c-18 -13 -69 -59 -114 -103 -175 -175 -249 -362 -208 -524 31 -121
125 -205 281 -251 67 -20 173 -35 173 -25 0 3 -9 15 -21 27 -66 70 -118 179
-121 257 l-1 39 -61 3 -61 3 -1 125 c0 69 1 130 3 135 2 6 45 10 104 9 98 -1
101 0 117 25 9 14 22 32 29 39 14 14 15 17 17 76 2 39 2 39 43 40 33 1 49 9
87 44 25 23 46 46 46 50 0 4 12 13 28 19 41 19 136 95 112 91 -11 -2 -15 12
-15 69 -1 78 -4 86 -23 74z"/>
<path d="M2646 2671 c-11 -4 -15 -10 -9 -14 5 -3 19 0 29 8 20 15 11 18 -20 6z"/>
<path d="M2449 2638 c-1 -2 -3 -43 -3 -91 l-2 -88 91 3 90 3 0 85 -1 85 -87 3
c-48 1 -88 1 -88 0z"/>
<path d="M3108 2593 l-3 -48 -47 1 -48 0 0 -43 0 -43 58 0 c57 0 59 1 59 28 1
58 2 61 31 59 26 -2 27 1 30 46 l3 47 -40 0 -40 0 -3 -47z"/>
<path d="M3394 2573 l1 -68 70 -3 71 -3 1 71 0 70 -72 0 -72 0 1 -67z"/>
<path d="M2290 2514 c-174 -90 -170 -87 -173 -163 -1 -34 1 -64 4 -67 4 -2 31
20 61 49 71 68 100 92 181 152 49 36 67 55 67 72 0 13 -3 23 -7 23 -5 0 -64
-30 -133 -66z"/>
<path d="M3157 2520 c-10 -4 -15 -76 -8 -122 1 -5 30 -8 66 -8 l64 0 -2 67 -2
66 -53 1 c-29 1 -58 -1 -65 -4z"/>
<path d="M3858 2523 c-11 -3 -18 -14 -18 -29 0 -20 5 -24 30 -24 24 0 29 4 27
20 -4 26 -18 38 -39 33z"/>
<path d="M1889 2442 c-12 -2 -15 -23 -15 -112 0 -69 4 -110 10 -112 10 -3 138
-3 193 1 20 1 21 5 19 113 l-1 113 -96 0 c-52 0 -102 -1 -110 -3z"/>
<path d="M2734 2431 c-2 -2 -4 -26 -4 -53 l0 -48 53 0 54 0 -2 45 c0 24 -4 48
-8 52 -8 7 -86 11 -93 4z"/>
<path d="M3700 2391 c0 -24 13 -33 34 -25 27 10 20 44 -9 44 -18 0 -25 -5 -25
-19z"/>
<path d="M2962 2332 c-22 -3 -23 -7 -20 -75 l3 -72 60 -1 c33 0 66 2 73 4 8 3
12 27 12 73 0 59 -3 69 -17 70 -10 0 -34 1 -53 2 -19 1 -45 1 -58 -1z"/>
<path d="M2572 2319 c-18 -7 -22 -38 -13 -102 1 -4 25 -7 54 -5 l52 3 1 53 c1
31 -3 52 -10 53 -6 0 -23 2 -38 3 -15 1 -36 -2 -46 -5z"/>
<path d="M1739 2159 c-131 -103 -359 -356 -359 -397 0 -6 -3 -12 -7 -14 -13
-5 -53 -98 -68 -158 -17 -65 -19 -155 -4 -213 23 -93 112 -177 227 -214 60
-19 250 -25 322 -11 95 19 225 64 320 111 96 48 274 157 267 164 -2 1 -31 -6
-65 -16 -34 -11 -62 -17 -62 -15 0 3 -8 0 -17 -5 -10 -5 -31 -12 -48 -15 -16
-3 -68 -12 -115 -21 -170 -31 -340 -22 -445 24 -249 110 -220 437 68 764 32
37 57 67 55 67 -3 0 -34 -23 -69 -51z"/>
<path d="M1794 2148 c-62 -69 -105 -137 -140 -223 -24 -59 -28 -84 -28 -160 0
-74 4 -99 23 -137 88 -181 320 -244 630 -172 75 18 108 33 76 35 -11 0 -29 2
-40 4 -11 2 -37 6 -58 9 -81 13 -197 72 -252 130 -42 44 -82 131 -76 168 1 13
-6 16 -31 16 -18 0 -38 0 -44 1 -7 1 -11 30 -10 81 l0 80 51 0 c50 0 51 1 64
37 13 34 48 99 87 158 l16 25 -110 0 -110 0 -48 -52z"/>
<path d="M2288 2138 c-3 -11 -3 -186 1 -223 1 -9 184 -13 234 -6 4 1 7 55 7
121 l0 120 -119 0 c-86 0 -120 -3 -123 -12z"/>
<path d="M1862 1899 l3 -62 53 -1 c30 0 57 4 61 9 4 6 7 33 7 60 l-1 50 -63 3
-63 3 3 -62z"/>
<path d="M2980 1837 l0 -53 53 1 52 1 3 52 3 52 -55 0 -56 0 0 -53z"/>
<path d="M2691 1684 c-47 -186 -241 -393 -480 -514 -68 -35 -226 -88 -278 -95
-21 -2 -60 -9 -88 -14 -105 -20 -372 2 -495 39 -19 6 -42 13 -50 15 -8 2 -39
12 -68 24 -28 11 -52 19 -52 16 0 -6 107 -77 172 -113 67 -37 211 -98 283
-119 149 -45 352 -59 495 -34 347 58 615 316 626 601 3 83 -12 175 -35 218 -6
12 -13 22 -15 22 -2 0 -9 -21 -15 -46z"/>
<path d="M1215 1473 c-58 -111 -198 -232 -354 -304 -58 -27 -158 -63 -206 -74
-98 -22 -165 -36 -190 -40 -89 -13 -195 -19 -318 -19 -75 0 -134 -3 -130 -6
16 -14 170 -73 248 -95 471 -134 847 33 966 430 10 32 24 165 18 165 -2 0 -17
-26 -34 -57z"/>
<path d="M3232 1316 c-97 -134 -244 -242 -389 -285 -82 -25 -109 -29 -193 -31
l-65 -1 68 -35 c252 -129 515 -72 603 132 24 54 25 58 26 157 1 48 -3 92 -8
97 -7 7 -21 -4 -42 -34z"/>
</g>
</svg>
